<svg xmlns="http://www.w3.org/2000/svg" width="1024" height="1024" viewBox="0 0 1024 1024">
  <defs>
    <linearGradient id="g" x1="0" x2="0" y1="0" y2="1">
      <stop offset="0%" stop-color="#cfd2d6"/>
      <stop offset="100%" stop-color="#9ea3a9"/>
    </linearGradient>
    <filter id="s" x="-20%" y="-20%" width="140%" height="140%">
      <feDropShadow dx="0" dy="12" stdDeviation="20" flood-color="#000" flood-opacity=".25"/>
    </filter>
  </defs>
  <rect x="64" y="64" width="896" height="896" rx="200" fill="url(#g)"/>
  <g filter="url(#s)">
    <rect x="190" y="640" width="644" height="48" rx="16" fill="#2b2f33"/>
    <circle cx="512" cy="484" r="140" fill="#2b2f33"/>
    <g stroke="#2b2f33" stroke-width="14" fill="none">
      <path d="M220 360 a320 320 0 0 1 584 0" stroke="#2b2f33" stroke-linecap="round"/>
    </g>
    <g stroke="#2b2f33" stroke-width="14" stroke-linecap="round">
      <path d="M262 360 v-24"/>
      <path d="M328 336 v-24"/>
      <path d="M394 324 v-24"/>
      <path d="M630 324 v-24"/>
      <path d="M696 336 v-24"/>
      <path d="M762 360 v-24"/>
    </g>
    <g stroke="#2b2f33" stroke-width="10">
      <path d="M432 484 v 220"/>
      <path d="M480 484 v 220"/>
      <path d="M544 484 v 220"/>
      <path d="M592 484 v 220"/>
    </g>
    <path d="M560 312 q 24 70 -12 150" stroke="#2b2f33" stroke-width="26" stroke-linecap="round" fill="none"/>
  </g>
  <g font-family="-apple-system, Helvetica, Arial, sans-serif" font-size="96" fill="#ffffff" opacity=".85">
    <text x="115" y="850">ChitarraTune</text>
  </g>
</svg>

